<svg xmlns="http://www.w3.org/2000/svg" viewBox="0 0 400 300" fill="none">
  <rect width="400" height="300" rx="12" fill="#141922"/>

  <!-- Factory class box -->
  <rect x="30" y="80" width="120" height="80" rx="6" fill="#1a2030" stroke="#3B82F6" stroke-width="2"/>
  <rect x="30" y="80" width="120" height="24" rx="6" fill="#0d1630"/>
  <text x="90" y="96" text-anchor="middle" fill="#3B82F6" font-family="monospace" font-size="11" font-weight="700">Factory</text>
  <line x1="30" y1="104" x2="150" y2="104" stroke="#2a3444"/>
  <text x="40" y="120" fill="#8892a4" font-family="monospace" font-size="9">+ create(type)</text>
  <text x="40" y="135" fill="#8892a4" font-family="monospace" font-size="9">+ register(key)</text>

  <!-- Arrow -->
  <line x1="150" y1="120" x2="190" y2="120" stroke="#3B82F6" stroke-width="2" stroke-dasharray="4 3"/>
  <polygon points="188,116 196,120 188,124" fill="#3B82F6"/>

  <!-- Animated creation pulse along arrow -->
  <circle r="3" fill="#3B82F6" opacity="0.9">
    <animateMotion dur="1.5s" repeatCount="indefinite" path="M150,120 L196,120"/>
  </circle>

  <!-- Product interface box -->
  <rect x="200" y="80" width="120" height="80" rx="6" fill="#1a2030" stroke="#8892a4" stroke-width="1.5"/>
  <rect x="200" y="80" width="120" height="24" rx="6" fill="#161830"/>
  <text x="260" y="92" text-anchor="middle" fill="#8892a4" font-family="monospace" font-size="8" font-style="italic">&#171;interface&#187;</text>
  <text x="260" y="103" text-anchor="middle" fill="#e0e4ea" font-family="monospace" font-size="11" font-weight="700">Product</text>
  <line x1="200" y1="104" x2="320" y2="104" stroke="#2a3444"/>
  <text x="210" y="120" fill="#8892a4" font-family="monospace" font-size="9">+ execute()</text>
  <text x="210" y="135" fill="#8892a4" font-family="monospace" font-size="9">+ validate()</text>

  <!-- Concrete products -->
  <rect x="50" y="190" width="90" height="45" rx="6" fill="#1a2030" stroke="#10B981" stroke-width="1.5"/>
  <rect x="50" y="190" width="90" height="20" rx="6" fill="#0d1f18"/>
  <text x="95" y="204" text-anchor="middle" fill="#10B981" font-family="monospace" font-size="10" font-weight="600">ConcreteA</text>
  <text x="60" y="225" fill="#8892a4" font-family="monospace" font-size="8">+ execute()</text>

  <rect x="155" y="190" width="90" height="45" rx="6" fill="#1a2030" stroke="#F59E0B" stroke-width="1.5"/>
  <rect x="155" y="190" width="90" height="20" rx="6" fill="#1f1a0d"/>
  <text x="200" y="204" text-anchor="middle" fill="#F59E0B" font-family="monospace" font-size="10" font-weight="600">ConcreteB</text>
  <text x="165" y="225" fill="#8892a4" font-family="monospace" font-size="8">+ execute()</text>

  <rect x="260" y="190" width="90" height="45" rx="6" fill="#1a2030" stroke="#EC4899" stroke-width="1.5"/>
  <rect x="260" y="190" width="90" height="20" rx="6" fill="#1f0d1a"/>
  <text x="305" y="204" text-anchor="middle" fill="#EC4899" font-family="monospace" font-size="10" font-weight="600">ConcreteC</text>
  <text x="270" y="225" fill="#8892a4" font-family="monospace" font-size="8">+ execute()</text>

  <!-- Inheritance arrows -->
  <line x1="95" y1="190" x2="240" y2="160" stroke="#8892a4" stroke-width="1"/>
  <line x1="200" y1="190" x2="260" y2="160" stroke="#8892a4" stroke-width="1"/>
  <line x1="305" y1="190" x2="280" y2="160" stroke="#8892a4" stroke-width="1"/>

  <!-- Animated inheritance flow dots -->
  <circle r="2.5" fill="#10B981" opacity="0.7">
    <animateMotion dur="2s" repeatCount="indefinite" path="M95,190 L240,160"/>
  </circle>
  <circle r="2.5" fill="#F59E0B" opacity="0.7">
    <animateMotion dur="2.2s" repeatCount="indefinite" begin="0.4s" path="M200,190 L260,160"/>
  </circle>
  <circle r="2.5" fill="#EC4899" opacity="0.7">
    <animateMotion dur="2.4s" repeatCount="indefinite" begin="0.8s" path="M305,190 L280,160"/>
  </circle>

  <!-- Spawned object -->
  <rect x="280" y="250" width="100" height="30" rx="6" fill="#0d1630" stroke="#3B82F6" stroke-width="1.5" stroke-dasharray="4 3"/>
  <text x="330" y="269" text-anchor="middle" fill="#3B82F6" font-family="monospace" font-size="10">:ConcreteA</text>

  <!-- Spawned object pulse -->
  <rect x="280" y="250" width="100" height="30" rx="6" fill="none" stroke="#3B82F6" stroke-width="2" opacity="0">
    <animate attributeName="opacity" values="0;0.7;0" dur="2s" repeatCount="indefinite"/>
    <animate attributeName="stroke-width" values="2;4;2" dur="2s" repeatCount="indefinite"/>
  </rect>

  <!-- Animated creation path: Factory → spawned object -->
  <circle r="3" fill="#3B82F6" opacity="0.8">
    <animateMotion dur="2.5s" repeatCount="indefinite" path="M90,160 L90,270 L280,270"/>
  </circle>

  <!-- Category badges -->
  <rect x="30" y="260" width="70" height="22" rx="4" fill="#0d1630" stroke="#3B82F6"/>
  <text x="65" y="275" text-anchor="middle" fill="#3B82F6" font-family="system-ui" font-size="9" font-weight="600">Creational</text>
  <rect x="108" y="260" width="70" height="22" rx="4" fill="#1a2030" stroke="#2a3444"/>
  <text x="143" y="275" text-anchor="middle" fill="#8892a4" font-family="system-ui" font-size="9">Structural</text>
  <rect x="186" y="260" width="70" height="22" rx="4" fill="#1a2030" stroke="#2a3444"/>
  <text x="221" y="275" text-anchor="middle" fill="#8892a4" font-family="system-ui" font-size="9">Behavioral</text>

  <!-- Active category indicator -->
  <rect x="30" y="260" width="70" height="22" rx="4" fill="none" stroke="#3B82F6" stroke-width="2" opacity="0">
    <animate attributeName="opacity" values="0;0.6;0" dur="3s" repeatCount="indefinite"/>
  </rect>
</svg>
